<svg display="none" xmlns="http://www.w3.org/2000/svg">

    <symbol id="logo" viewBox="0 0 140 24">
<circle cx="8.5" cy="12" r="8" stroke="#333333" fill="none"/>
<path d="M25.84 18.58C26.5867 18.58 27.2 18.46 27.68 18.22C28.1733 17.9667 28.42 17.5467 28.42 16.96C28.42 16.68 28.3733 16.44 28.28 16.24C28.2 16.04 28.06 15.86 27.86 15.7C27.66 15.54 27.3933 15.3867 27.06 15.24C26.74 15.0933 26.34 14.92 25.86 14.72C25.4733 14.56 25.1067 14.4 24.76 14.24C24.4133 14.0667 24.1067 13.8733 23.84 13.66C23.5733 13.4333 23.36 13.1667 23.2 12.86C23.04 12.5533 22.96 12.18 22.96 11.74C22.96 10.9 23.2733 10.22 23.9 9.7C24.54 9.18 25.4133 8.92 26.52 8.92C27.2267 8.92 27.8067 8.98 28.26 9.1C28.7267 9.22 29.0533 9.32667 29.24 9.42L28.94 10.58C28.78 10.5 28.5067 10.3933 28.12 10.26C27.7467 10.1267 27.1933 10.06 26.46 10.06C26.1667 10.06 25.8867 10.0933 25.62 10.16C25.3667 10.2133 25.14 10.3067 24.94 10.44C24.74 10.56 24.58 10.72 24.46 10.92C24.34 11.1067 24.28 11.34 24.28 11.62C24.28 11.9 24.3333 12.14 24.44 12.34C24.5467 12.54 24.7 12.72 24.9 12.88C25.1133 13.0267 25.3667 13.1667 25.66 13.3C25.9667 13.4333 26.3133 13.58 26.7 13.74C27.1 13.9 27.48 14.0667 27.84 14.24C28.2133 14.4 28.54 14.6 28.82 14.84C29.1 15.0667 29.3267 15.3467 29.5 15.68C29.6733 16 29.76 16.4067 29.76 16.9C29.76 17.8333 29.4067 18.54 28.7 19.02C28.0067 19.5 27.0533 19.74 25.84 19.74C24.9333 19.74 24.24 19.66 23.76 19.5C23.28 19.3533 22.96 19.24 22.8 19.16L23.14 17.98C23.18 18.0067 23.2667 18.0533 23.4 18.12C23.5333 18.1733 23.7133 18.24 23.94 18.32C24.1667 18.3867 24.4333 18.4467 24.74 18.5C25.06 18.5533 25.4267 18.58 25.84 18.58ZM33.5747 19.5H32.2747V9.16H33.5747V19.5ZM33.8747 6.04C33.8747 6.34667 33.7814 6.59333 33.5947 6.78C33.408 6.95333 33.1814 7.04 32.9147 7.04C32.648 7.04 32.4214 6.95333 32.2347 6.78C32.048 6.59333 31.9547 6.34667 31.9547 6.04C31.9547 5.73333 32.048 5.49333 32.2347 5.32C32.4214 5.13333 32.648 5.04 32.9147 5.04C33.1814 5.04 33.408 5.13333 33.5947 5.32C33.7814 5.49333 33.8747 5.73333 33.8747 6.04ZM37.0208 9.52C37.4074 9.41333 37.9074 9.29333 38.5208 9.16C39.1474 9.02667 39.9541 8.96 40.9408 8.96C42.2474 8.96 43.1941 9.34 43.7808 10.1C43.8474 10.0467 43.9741 9.96 44.1608 9.84C44.3608 9.70667 44.6074 9.57333 44.9008 9.44C45.1941 9.30667 45.5341 9.19333 45.9208 9.1C46.3208 9.00667 46.7608 8.96 47.2408 8.96C48.0274 8.96 48.6608 9.08 49.1408 9.32C49.6341 9.54667 50.0141 9.87333 50.2808 10.3C50.5474 10.7133 50.7274 11.2133 50.8208 11.8C50.9141 12.3867 50.9608 13.0267 50.9608 13.72V19.5H49.6608V14.14C49.6608 13.46 49.6274 12.8733 49.5608 12.38C49.5074 11.8733 49.3874 11.46 49.2008 11.14C49.0274 10.8067 48.7741 10.56 48.4408 10.4C48.1074 10.2267 47.6741 10.14 47.1408 10.14C46.7408 10.14 46.3741 10.18 46.0408 10.26C45.7208 10.3267 45.4408 10.4133 45.2008 10.52C44.9608 10.6267 44.7608 10.7333 44.6008 10.84C44.4541 10.9467 44.3474 11.0267 44.2808 11.08C44.4008 11.4267 44.4874 11.82 44.5408 12.26C44.6074 12.6867 44.6408 13.14 44.6408 13.62V19.5H43.3408V14.14C43.3408 13.46 43.3074 12.8733 43.2408 12.38C43.1874 11.8733 43.0674 11.46 42.8808 11.14C42.6941 10.8067 42.4274 10.56 42.0808 10.4C41.7474 10.2267 41.3008 10.14 40.7408 10.14C40.1141 10.14 39.5808 10.1733 39.1408 10.24C38.7141 10.3067 38.4408 10.3667 38.3208 10.42V19.5H37.0208V9.52ZM55.5864 17.64C55.7064 17.7333 55.8531 17.8333 56.0264 17.94C56.2131 18.0467 56.4264 18.1467 56.6664 18.24C56.9064 18.3333 57.1664 18.4133 57.4464 18.48C57.7264 18.5333 58.0197 18.56 58.3264 18.56C58.9664 18.56 59.4997 18.4533 59.9264 18.24C60.3664 18.0133 60.7197 17.7133 60.9864 17.34C61.2531 16.9533 61.4464 16.5067 61.5664 16C61.6864 15.48 61.7464 14.9333 61.7464 14.36C61.7464 13 61.4064 11.96 60.7264 11.24C60.0464 10.5067 59.1464 10.14 58.0264 10.14C57.3864 10.14 56.8664 10.1733 56.4664 10.24C56.0797 10.2933 55.7864 10.3533 55.5864 10.42V17.64ZM55.5864 23.2H54.2864V9.52C54.6731 9.38667 55.1664 9.26 55.7664 9.14C56.3664 9.02 57.1264 8.96 58.0464 8.96C58.8064 8.96 59.4931 9.08667 60.1064 9.34C60.7331 9.58 61.2664 9.93333 61.7064 10.4C62.1597 10.8667 62.5064 11.4333 62.7464 12.1C62.9997 12.7667 63.1264 13.52 63.1264 14.36C63.1264 15.1467 63.0197 15.8733 62.8064 16.54C62.6064 17.1933 62.3064 17.76 61.9064 18.24C61.5064 18.7067 61.0131 19.0733 60.4264 19.34C59.8531 19.6067 59.1931 19.74 58.4464 19.74C57.7664 19.74 57.1731 19.6467 56.6664 19.46C56.1731 19.26 55.8131 19.0733 55.5864 18.9V23.2ZM68.5666 19.68C68.1266 19.6667 67.7399 19.6067 67.4066 19.5C67.0866 19.4067 66.8132 19.26 66.5866 19.06C66.3732 18.8467 66.2066 18.58 66.0866 18.26C65.9799 17.9267 65.9266 17.5133 65.9266 17.02V4.22L67.2266 3.98V16.98C67.2266 17.3 67.2532 17.56 67.3066 17.76C67.3732 17.9467 67.4666 18.1 67.5866 18.22C67.7066 18.3267 67.8599 18.4067 68.0466 18.46C68.2466 18.5133 68.4799 18.56 68.7466 18.6L68.5666 19.68ZM70.4242 14.32C70.4242 13.4133 70.5509 12.6267 70.8042 11.96C71.0709 11.28 71.4109 10.7133 71.8242 10.26C72.2509 9.80667 72.7309 9.47333 73.2642 9.26C73.8109 9.03333 74.3709 8.92 74.9442 8.92C76.2109 8.92 77.2176 9.33333 77.9642 10.16C78.7242 10.9867 79.1042 12.26 79.1042 13.98C79.1042 14.0867 79.0976 14.1933 79.0842 14.3C79.0842 14.4067 79.0776 14.5067 79.0642 14.6H71.8042C71.8442 15.8667 72.1576 16.84 72.7442 17.52C73.3309 18.2 74.2642 18.54 75.5442 18.54C76.2509 18.54 76.8109 18.4733 77.2242 18.34C77.6376 18.2067 77.9376 18.0933 78.1242 18L78.3642 19.12C78.1776 19.2267 77.8242 19.3533 77.3042 19.5C76.7976 19.6467 76.1976 19.72 75.5042 19.72C74.5976 19.72 73.8242 19.5867 73.1842 19.32C72.5442 19.0533 72.0176 18.68 71.6042 18.2C71.1909 17.72 70.8909 17.1533 70.7042 16.5C70.5176 15.8333 70.4242 15.1067 70.4242 14.32ZM77.7642 13.5C77.7376 12.42 77.4842 11.58 77.0042 10.98C76.5242 10.38 75.8442 10.08 74.9642 10.08C74.4976 10.08 74.0776 10.1733 73.7042 10.36C73.3442 10.5467 73.0242 10.8 72.7442 11.12C72.4776 11.4267 72.2642 11.7867 72.1042 12.2C71.9576 12.6133 71.8709 13.0467 71.8442 13.5H77.7642Z" fill="#333333"/>
<rect x="86.5" y="4" width="31" height="16" rx="8" stroke="#333333" fill="none"/>
<circle cx="131.5" cy="12" r="8" stroke="#333333" fill="none"/>
    </symbol>

    <symbol id="search" viewBox="0 0 24 24">
    <path d="M13 19C8.58172 19 5 15.4183 5 11C5 6.58172 8.58172 3 13 3C17.4183 3 21 6.58172 21 11C21 15.4183 17.4183 19 13 19Z" stroke="#4C5866" stroke-width="2" stroke-linecap="round" stroke-linejoin="round" fill="none"/>
    <path d="M2.99998 20.9999L7.34998 16.6499" stroke="#4C5866" stroke-width="2" stroke-linecap="round" stroke-linejoin="round"/>
    </symbol>

    <symbol id="login" viewBox="0 0 24 24">
    <path d="M15 3H19C19.5304 3 20.0391 3.21071 20.4142 3.58579C20.7893 3.96086 21 4.46957 21 5V19C21 19.5304 20.7893 20.0391 20.4142 20.4142C20.0391 20.7893 19.5304 21 19 21H15" stroke="#4C5866" stroke-width="2" stroke-linecap="round" stroke-linejoin="round" fill="none"/>
    <path d="M10 17L15 12L10 7" stroke="#4C5866" stroke-width="2" stroke-linecap="round" stroke-linejoin="round" fill="none"/>
    <path d="M15 12H3" stroke="#4C5866" stroke-width="2" stroke-linecap="round" stroke-linejoin="round"/>
    </symbol>

    <symbol id="burger" viewBox="0 0 30 30">
    <path fill-rule="evenodd" clip-rule="evenodd" d="M4.6875 21.5625C4.6875 21.3139 4.78627 21.0754 4.96209 20.8996C5.1379 20.7238 5.37636 20.625 5.625 20.625H24.375C24.6236 20.625 24.8621 20.7238 25.0379 20.8996C25.2137 21.0754 25.3125 21.3139 25.3125 21.5625C25.3125 21.8111 25.2137 22.0496 25.0379 22.2254C24.8621 22.4012 24.6236 22.5 24.375 22.5H5.625C5.37636 22.5 5.1379 22.4012 4.96209 22.2254C4.78627 22.0496 4.6875 21.8111 4.6875 21.5625ZM4.6875 14.0625C4.6875 13.8139 4.78627 13.5754 4.96209 13.3996C5.1379 13.2238 5.37636 13.125 5.625 13.125H24.375C24.6236 13.125 24.8621 13.2238 25.0379 13.3996C25.2137 13.5754 25.3125 13.8139 25.3125 14.0625C25.3125 14.3111 25.2137 14.5496 25.0379 14.7254C24.8621 14.9012 24.6236 15 24.375 15H5.625C5.37636 15 5.1379 14.9012 4.96209 14.7254C4.78627 14.5496 4.6875 14.3111 4.6875 14.0625ZM4.6875 6.5625C4.6875 6.31386 4.78627 6.0754 4.96209 5.89959C5.1379 5.72377 5.37636 5.625 5.625 5.625H24.375C24.6236 5.625 24.8621 5.72377 25.0379 5.89959C25.2137 6.0754 25.3125 6.31386 25.3125 6.5625C25.3125 6.81114 25.2137 7.0496 25.0379 7.22541C24.8621 7.40123 24.6236 7.5 24.375 7.5H5.625C5.37636 7.5 5.1379 7.40123 4.96209 7.22541C4.78627 7.0496 4.6875 6.81114 4.6875 6.5625Z" fill="#4C5866"/>
    </symbol>
    <symbol id="cross" viewBox="0 0 30 30">
    <path fill-rule="evenodd" clip-rule="evenodd" d="M6.75 6.75C6.94891 6.55109 7.2187 6.43934 7.5 6.43934C7.7813 6.43934 8.05109 6.55109 8.25 6.75L23.25 21.75C23.4489 21.9489 23.5606 22.2187 23.5606 22.5C23.5606 22.7813 23.4489 23.0511 23.25 23.25C23.0511 23.4489 22.7813 23.5606 22.5 23.5606C22.2187 23.5606 21.9489 23.4489 21.75 23.25L6.75 8.25C6.55109 8.05109 6.43934 7.7813 6.43934 7.5C6.43934 7.21869 6.55109 6.94891 6.75 6.75Z" fill="#4C5866"/>
    <path fill-rule="evenodd" clip-rule="evenodd" d="M23.25 6.75C23.4489 6.94891 23.5607 7.2187 23.5607 7.5C23.5607 7.7813 23.4489 8.05109 23.25 8.25L8.25001 23.25C8.0511 23.4489 7.78132 23.5606 7.50001 23.5606C7.21871 23.5606 6.94893 23.4489 6.75002 23.25C6.55111 23.0511 6.43936 22.7813 6.43936 22.5C6.43936 22.2187 6.5511 21.9489 6.75002 21.75L21.75 6.75C21.9489 6.55109 22.2187 6.43934 22.5 6.43934C22.7813 6.43934 23.0511 6.55109 23.25 6.75Z" fill="#4C5866"/><path fill-rule="evenodd" clip-rule="evenodd" d="M6.75 6.75C6.94891 6.55109 7.2187 6.43934 7.5 6.43934C7.7813 6.43934 8.05109 6.55109 8.25 6.75L23.25 21.75C23.4489 21.9489 23.5606 22.2187 23.5606 22.5C23.5606 22.7813 23.4489 23.0511 23.25 23.25C23.0511 23.4489 22.7813 23.5606 22.5 23.5606C22.2187 23.5606 21.9489 23.4489 21.75 23.25L6.75 8.25C6.55109 8.05109 6.43934 7.7813 6.43934 7.5C6.43934 7.21869 6.55109 6.94891 6.75 6.75Z" fill="#4C5866"/>
    <path fill-rule="evenodd" clip-rule="evenodd" d="M23.25 6.75C23.4489 6.94891 23.5607 7.2187 23.5607 7.5C23.5607 7.7813 23.4489 8.05109 23.25 8.25L8.25001 23.25C8.0511 23.4489 7.78132 23.5606 7.50001 23.5606C7.21871 23.5606 6.94893 23.4489 6.75002 23.25C6.55111 23.0511 6.43936 22.7813 6.43936 22.5C6.43936 22.2187 6.5511 21.9489 6.75002 21.75L21.75 6.75C21.9489 6.55109 22.2187 6.43934 22.5 6.43934C22.7813 6.43934 23.0511 6.55109 23.25 6.75Z" fill="#4C5866"/>
    </symbol>

    <symbol id="arrow" viewBox="0 0 21 15">
   <path d="M20.7071 8.20711C21.0976 7.81658 21.0976 7.18342 20.7071 6.79289L14.3431 0.428932C13.9526 0.0384078 13.3195 0.0384078 12.9289 0.428932C12.5384 0.819457 12.5384 1.45262 12.9289 1.84315L18.5858 7.5L12.9289 13.1569C12.5384 13.5474 12.5384 14.1805 12.9289 14.5711C13.3195 14.9616 13.9526 14.9616 14.3431 14.5711L20.7071 8.20711ZM0 8.5H20V6.5H0V8.5Z" fill="#7875FE"/>
    </symbol>
    <symbol id="vk" viewBox="0 0 24 24">
    <path d="M5.82564 5.82664C5.4818 6.17548 5.25591 6.66525 5.12997 7.59581C5.00103 8.56036 5.00003 9.83776 5.00003 11.6759V12.3156C5.00003 14.1507 5.00103 15.4271 5.12997 16.3907C5.25491 17.3223 5.4818 17.815 5.82664 18.1669C6.17648 18.5097 6.66625 18.7366 7.59581 18.8615C8.56036 18.9905 9.83776 18.9925 11.6759 18.9925H12.3156C14.1507 18.9925 15.4271 18.9905 16.3917 18.8615C17.3223 18.7366 17.815 18.5097 18.1669 18.1649C18.5097 17.816 18.7366 17.3263 18.8615 16.3957C18.9915 15.4311 18.9925 14.1537 18.9925 12.3156V11.6759C18.9925 9.84076 18.9905 8.56436 18.8625 7.60081C18.7366 6.66924 18.5097 6.17648 18.1649 5.82464C17.816 5.4818 17.3263 5.25491 16.3957 5.12997C15.4311 5.00103 14.1537 4.99903 12.3156 4.99903H11.6759C9.84076 4.99903 8.56436 5.00103 7.60081 5.12997C6.66924 5.25491 6.17747 5.4818 5.82564 5.82664ZM11.6759 2.99996H12.3156C13.7599 2.99996 15.2262 2.95698 16.6606 3.14889C17.816 3.30382 18.7946 3.63467 19.5762 4.4083L19.5842 4.4173C20.3568 5.20093 20.6887 6.17947 20.8436 7.33593C21.0345 8.76826 20.9915 10.2336 20.9915 11.6759V12.3156C20.9915 13.7589 21.0355 15.2252 20.8426 16.6606C20.6887 17.816 20.3568 18.7946 19.5832 19.5762L19.5742 19.5842C18.7916 20.3568 17.813 20.6877 16.6556 20.8436C15.2232 21.0345 13.7579 20.9915 12.3156 20.9915H11.6759C10.2326 20.9915 8.76626 21.0345 7.33193 20.8426C6.17548 20.6877 5.19693 20.3568 4.4163 19.5832L4.4073 19.5742C3.63567 18.7906 3.30382 17.812 3.14889 16.6556C2.95698 15.2242 2.99996 13.7589 2.99996 12.3156V11.6759C2.99996 10.2326 2.95698 8.76626 3.14989 7.33093C3.30382 6.17548 3.63566 5.19693 4.4093 4.4153L4.4173 4.4073C5.20093 3.63467 6.17947 3.30382 7.33593 3.14789C8.76926 2.95798 10.2346 2.99996 11.6759 2.99996ZM6.03454 8.4754C6.1305 13.1532 8.4694 15.9599 12.5715 15.9599H12.8114V13.2851C14.3167 13.4351 15.4561 14.5386 15.9119 15.9599H18.0409C17.8225 15.1523 17.4354 14.4001 16.9051 13.753C16.3748 13.1059 15.7133 12.5785 14.9644 12.2057C15.6356 11.797 16.2153 11.2542 16.6673 10.6114C17.1192 9.9685 17.4337 9.23932 17.5911 8.4694H15.66C15.2402 9.9567 13.9928 11.3061 12.8114 11.432V8.4754H10.8743V13.657C9.67484 13.3571 8.16354 11.9058 8.09758 8.4754H6.03454Z" fill="white"/>
    </symbol>
    <symbol id="twitter" viewBox="0 0 24 24">
        <path d="M22.162 5.65599C21.3986 5.99368 20.589 6.21546 19.76 6.31399C20.6337 5.79142 21.2877 4.969 21.6 3.99999C20.78 4.48799 19.881 4.82999 18.944 5.01499C18.3146 4.34157 17.4804 3.89495 16.5709 3.74457C15.6615 3.59419 14.7279 3.74848 13.9153 4.18344C13.1026 4.6184 12.4564 5.30967 12.0771 6.14978C11.6978 6.98989 11.6067 7.93177 11.818 8.82899C10.1551 8.74564 8.52832 8.31351 7.04328 7.56065C5.55823 6.80779 4.24812 5.75104 3.19799 4.45899C2.82628 5.09744 2.63095 5.82321 2.63199 6.56199C2.63199 8.01199 3.36999 9.29299 4.49199 10.043C3.828 10.0221 3.17862 9.84277 2.59799 9.51999V9.57199C2.59819 10.5377 2.93236 11.4736 3.54384 12.221C4.15532 12.9685 5.00647 13.4815 5.95299 13.673C5.33661 13.84 4.6903 13.8646 4.06299 13.745C4.32986 14.5762 4.85 15.3032 5.55058 15.8241C6.25117 16.345 7.09712 16.6338 7.96999 16.65C7.10247 17.3313 6.10917 17.835 5.04687 18.1322C3.98458 18.4293 2.87412 18.5142 1.77899 18.382C3.69069 19.6114 5.91609 20.2641 8.18899 20.262C15.882 20.262 20.089 13.889 20.089 8.36199C20.089 8.18199 20.084 7.99999 20.076 7.82199C20.8949 7.23016 21.6016 6.49701 22.163 5.65699L22.162 5.65599Z" fill="white"/>
    </symbol>
    <symbol id="insta" viewBox="0 0 24 24">
    <path d="M12 2C14.717 2 15.056 2.01 16.122 2.06C17.187 2.11 17.912 2.277 18.55 2.525C19.21 2.779 19.766 3.123 20.322 3.678C20.8305 4.1779 21.224 4.78259 21.475 5.45C21.722 6.087 21.89 6.813 21.94 7.878C21.987 8.944 22 9.283 22 12C22 14.717 21.99 15.056 21.94 16.122C21.89 17.187 21.722 17.912 21.475 18.55C21.2247 19.2178 20.8311 19.8226 20.322 20.322C19.822 20.8303 19.2173 21.2238 18.55 21.475C17.913 21.722 17.187 21.89 16.122 21.94C15.056 21.987 14.717 22 12 22C9.283 22 8.944 21.99 7.878 21.94C6.813 21.89 6.088 21.722 5.45 21.475C4.78233 21.2245 4.17753 20.8309 3.678 20.322C3.16941 19.8222 2.77593 19.2175 2.525 18.55C2.277 17.913 2.11 17.187 2.06 16.122C2.013 15.056 2 14.717 2 12C2 9.283 2.01 8.944 2.06 7.878C2.11 6.812 2.277 6.088 2.525 5.45C2.77524 4.78218 3.1688 4.17732 3.678 3.678C4.17767 3.16923 4.78243 2.77573 5.45 2.525C6.088 2.277 6.812 2.11 7.878 2.06C8.944 2.013 9.283 2 12 2ZM12 7C10.6739 7 9.40215 7.52678 8.46447 8.46447C7.52678 9.40215 7 10.6739 7 12C7 13.3261 7.52678 14.5979 8.46447 15.5355C9.40215 16.4732 10.6739 17 12 17C13.3261 17 14.5979 16.4732 15.5355 15.5355C16.4732 14.5979 17 13.3261 17 12C17 10.6739 16.4732 9.40215 15.5355 8.46447C14.5979 7.52678 13.3261 7 12 7ZM18.5 6.75C18.5 6.41848 18.3683 6.10054 18.1339 5.86612C17.8995 5.6317 17.5815 5.5 17.25 5.5C16.9185 5.5 16.6005 5.6317 16.3661 5.86612C16.1317 6.10054 16 6.41848 16 6.75C16 7.08152 16.1317 7.39946 16.3661 7.63388C16.6005 7.8683 16.9185 8 17.25 8C17.5815 8 17.8995 7.8683 18.1339 7.63388C18.3683 7.39946 18.5 7.08152 18.5 6.75ZM12 9C12.7956 9 13.5587 9.31607 14.1213 9.87868C14.6839 10.4413 15 11.2044 15 12C15 12.7956 14.6839 13.5587 14.1213 14.1213C13.5587 14.6839 12.7956 15 12 15C11.2044 15 10.4413 14.6839 9.87868 14.1213C9.31607 13.5587 9 12.7956 9 12C9 11.2044 9.31607 10.4413 9.87868 9.87868C10.4413 9.31607 11.2044 9 12 9Z" fill="white"/>
    </symbol>
    <symbol id="youtube" viewBox="0 0 24 24">
    <path d="M21.543 6.498C22 8.28 22 12 22 12C22 12 22 15.72 21.543 17.502C21.289 18.487 20.546 19.262 19.605 19.524C17.896 20 12 20 12 20C12 20 6.107 20 4.395 19.524C3.45 19.258 2.708 18.484 2.457 17.502C2 15.72 2 12 2 12C2 12 2 8.28 2.457 6.498C2.711 5.513 3.454 4.738 4.395 4.476C6.107 4 12 4 12 4C12 4 17.896 4 19.605 4.476C20.55 4.742 21.292 5.516 21.543 6.498ZM10 15.5L16 12L10 8.5V15.5Z" fill="white"/>
    </symbol>
    <symbol id="footer__logo-icon" viewBox="0 0 140 23">
<circle cx="8.5" cy="11" r="8" stroke="white" fill="none"/>
<path d="M25.84 17.58C26.5867 17.58 27.2 17.46 27.68 17.22C28.1733 16.9667 28.42 16.5467 28.42 15.96C28.42 15.68 28.3733 15.44 28.28 15.24C28.2 15.04 28.06 14.86 27.86 14.7C27.66 14.54 27.3933 14.3867 27.06 14.24C26.74 14.0933 26.34 13.92 25.86 13.72C25.4733 13.56 25.1067 13.4 24.76 13.24C24.4133 13.0667 24.1067 12.8733 23.84 12.66C23.5733 12.4333 23.36 12.1667 23.2 11.86C23.04 11.5533 22.96 11.18 22.96 10.74C22.96 9.9 23.2733 9.22 23.9 8.7C24.54 8.18 25.4133 7.92 26.52 7.92C27.2267 7.92 27.8067 7.98 28.26 8.1C28.7267 8.22 29.0533 8.32667 29.24 8.42L28.94 9.58C28.78 9.5 28.5067 9.39333 28.12 9.26C27.7467 9.12667 27.1933 9.06 26.46 9.06C26.1667 9.06 25.8867 9.09333 25.62 9.16C25.3667 9.21333 25.14 9.30667 24.94 9.44C24.74 9.56 24.58 9.72 24.46 9.92C24.34 10.1067 24.28 10.34 24.28 10.62C24.28 10.9 24.3333 11.14 24.44 11.34C24.5467 11.54 24.7 11.72 24.9 11.88C25.1133 12.0267 25.3667 12.1667 25.66 12.3C25.9667 12.4333 26.3133 12.58 26.7 12.74C27.1 12.9 27.48 13.0667 27.84 13.24C28.2133 13.4 28.54 13.6 28.82 13.84C29.1 14.0667 29.3267 14.3467 29.5 14.68C29.6733 15 29.76 15.4067 29.76 15.9C29.76 16.8333 29.4067 17.54 28.7 18.02C28.0067 18.5 27.0533 18.74 25.84 18.74C24.9333 18.74 24.24 18.66 23.76 18.5C23.28 18.3533 22.96 18.24 22.8 18.16L23.14 16.98C23.18 17.0067 23.2667 17.0533 23.4 17.12C23.5333 17.1733 23.7133 17.24 23.94 17.32C24.1667 17.3867 24.4333 17.4467 24.74 17.5C25.06 17.5533 25.4267 17.58 25.84 17.58ZM33.5747 18.5H32.2747V8.16H33.5747V18.5ZM33.8747 5.04C33.8747 5.34667 33.7814 5.59333 33.5947 5.78C33.408 5.95333 33.1814 6.04 32.9147 6.04C32.648 6.04 32.4214 5.95333 32.2347 5.78C32.048 5.59333 31.9547 5.34667 31.9547 5.04C31.9547 4.73333 32.048 4.49333 32.2347 4.32C32.4214 4.13333 32.648 4.04 32.9147 4.04C33.1814 4.04 33.408 4.13333 33.5947 4.32C33.7814 4.49333 33.8747 4.73333 33.8747 5.04ZM37.0208 8.52C37.4074 8.41333 37.9074 8.29333 38.5208 8.16C39.1474 8.02667 39.9541 7.96 40.9408 7.96C42.2474 7.96 43.1941 8.34 43.7808 9.1C43.8474 9.04667 43.9741 8.96 44.1608 8.84C44.3608 8.70667 44.6074 8.57333 44.9008 8.44C45.1941 8.30667 45.5341 8.19333 45.9208 8.1C46.3208 8.00667 46.7608 7.96 47.2408 7.96C48.0274 7.96 48.6608 8.08 49.1408 8.32C49.6341 8.54667 50.0141 8.87333 50.2808 9.3C50.5474 9.71333 50.7274 10.2133 50.8208 10.8C50.9141 11.3867 50.9608 12.0267 50.9608 12.72V18.5H49.6608V13.14C49.6608 12.46 49.6274 11.8733 49.5608 11.38C49.5074 10.8733 49.3874 10.46 49.2008 10.14C49.0274 9.80667 48.7741 9.56 48.4408 9.4C48.1074 9.22667 47.6741 9.14 47.1408 9.14C46.7408 9.14 46.3741 9.18 46.0408 9.26C45.7208 9.32667 45.4408 9.41333 45.2008 9.52C44.9608 9.62667 44.7608 9.73333 44.6008 9.84C44.4541 9.94667 44.3474 10.0267 44.2808 10.08C44.4008 10.4267 44.4874 10.82 44.5408 11.26C44.6074 11.6867 44.6408 12.14 44.6408 12.62V18.5H43.3408V13.14C43.3408 12.46 43.3074 11.8733 43.2408 11.38C43.1874 10.8733 43.0674 10.46 42.8808 10.14C42.6941 9.80667 42.4274 9.56 42.0808 9.4C41.7474 9.22667 41.3008 9.14 40.7408 9.14C40.1141 9.14 39.5808 9.17333 39.1408 9.24C38.7141 9.30667 38.4408 9.36667 38.3208 9.42V18.5H37.0208V8.52ZM55.5864 16.64C55.7064 16.7333 55.8531 16.8333 56.0264 16.94C56.2131 17.0467 56.4264 17.1467 56.6664 17.24C56.9064 17.3333 57.1664 17.4133 57.4464 17.48C57.7264 17.5333 58.0197 17.56 58.3264 17.56C58.9664 17.56 59.4997 17.4533 59.9264 17.24C60.3664 17.0133 60.7197 16.7133 60.9864 16.34C61.2531 15.9533 61.4464 15.5067 61.5664 15C61.6864 14.48 61.7464 13.9333 61.7464 13.36C61.7464 12 61.4064 10.96 60.7264 10.24C60.0464 9.50667 59.1464 9.14 58.0264 9.14C57.3864 9.14 56.8664 9.17333 56.4664 9.24C56.0797 9.29333 55.7864 9.35333 55.5864 9.42V16.64ZM55.5864 22.2H54.2864V8.52C54.6731 8.38667 55.1664 8.26 55.7664 8.14C56.3664 8.02 57.1264 7.96 58.0464 7.96C58.8064 7.96 59.4931 8.08667 60.1064 8.34C60.7331 8.58 61.2664 8.93333 61.7064 9.4C62.1597 9.86667 62.5064 10.4333 62.7464 11.1C62.9997 11.7667 63.1264 12.52 63.1264 13.36C63.1264 14.1467 63.0197 14.8733 62.8064 15.54C62.6064 16.1933 62.3064 16.76 61.9064 17.24C61.5064 17.7067 61.0131 18.0733 60.4264 18.34C59.8531 18.6067 59.1931 18.74 58.4464 18.74C57.7664 18.74 57.1731 18.6467 56.6664 18.46C56.1731 18.26 55.8131 18.0733 55.5864 17.9V22.2ZM68.5666 18.68C68.1266 18.6667 67.7399 18.6067 67.4066 18.5C67.0866 18.4067 66.8132 18.26 66.5866 18.06C66.3732 17.8467 66.2066 17.58 66.0866 17.26C65.9799 16.9267 65.9266 16.5133 65.9266 16.02V3.22L67.2266 2.98V15.98C67.2266 16.3 67.2532 16.56 67.3066 16.76C67.3732 16.9467 67.4666 17.1 67.5866 17.22C67.7066 17.3267 67.8599 17.4067 68.0466 17.46C68.2466 17.5133 68.4799 17.56 68.7466 17.6L68.5666 18.68ZM70.4242 13.32C70.4242 12.4133 70.5509 11.6267 70.8042 10.96C71.0709 10.28 71.4109 9.71333 71.8242 9.26C72.2509 8.80667 72.7309 8.47333 73.2642 8.26C73.8109 8.03333 74.3709 7.92 74.9442 7.92C76.2109 7.92 77.2176 8.33333 77.9642 9.16C78.7242 9.98667 79.1042 11.26 79.1042 12.98C79.1042 13.0867 79.0976 13.1933 79.0842 13.3C79.0842 13.4067 79.0776 13.5067 79.0642 13.6H71.8042C71.8442 14.8667 72.1576 15.84 72.7442 16.52C73.3309 17.2 74.2642 17.54 75.5442 17.54C76.2509 17.54 76.8109 17.4733 77.2242 17.34C77.6376 17.2067 77.9376 17.0933 78.1242 17L78.3642 18.12C78.1776 18.2267 77.8242 18.3533 77.3042 18.5C76.7976 18.6467 76.1976 18.72 75.5042 18.72C74.5976 18.72 73.8242 18.5867 73.1842 18.32C72.5442 18.0533 72.0176 17.68 71.6042 17.2C71.1909 16.72 70.8909 16.1533 70.7042 15.5C70.5176 14.8333 70.4242 14.1067 70.4242 13.32ZM77.7642 12.5C77.7376 11.42 77.4842 10.58 77.0042 9.98C76.5242 9.38 75.8442 9.08 74.9642 9.08C74.4976 9.08 74.0776 9.17333 73.7042 9.36C73.3442 9.54667 73.0242 9.8 72.7442 10.12C72.4776 10.4267 72.2642 10.7867 72.1042 11.2C71.9576 11.6133 71.8709 12.0467 71.8442 12.5H77.7642Z" fill="white"/>
<rect x="86.5" y="3" width="31" height="16" rx="8" stroke="white" fill="none"/>
<circle cx="131.5" cy="11" r="8" stroke="white" fill="none"/>
    </symbol>

    <symbol id="hahn" viewBox="0 0 186 53">
        <path d="M59.1875 46.9875V28.7685H56.8737V36.608H48.9451V28.7685H46.6313V46.9875H48.9451V38.7403H56.9046V46.9875H59.1875ZM72.9469 37.7055C72.9469 34.852 71.7128 33.3781 67.9491 33.3781C66.5299 33.3781 64.864 33.5976 63.6608 33.9739L63.8768 35.8241C64.9257 35.6045 66.5608 35.385 67.7948 35.385C69.9235 35.385 70.6331 35.9808 70.6331 37.6428V39.7124H67.1778C64.5247 39.7124 63.1672 40.7159 63.1672 43.4754C63.1672 45.8273 64.2162 47.3011 66.6533 47.3011C68.2267 47.3011 69.7384 46.8621 70.9107 46.0468L71.065 47.0502H72.9777L72.9469 37.7055ZM70.6639 44.228C69.6458 44.8865 68.4118 45.3255 67.2704 45.3255C65.6661 45.3255 65.4193 44.7611 65.4193 43.4127C65.4193 42.0643 65.9438 41.6253 67.3321 41.6253H70.6639V44.228ZM87.0764 46.9875V36.7648C87.0764 34.7265 86.336 33.3781 84.2382 33.3781C82.7265 33.3781 80.6286 34.0366 79.1787 34.7892V27.9218L76.9266 28.2354V47.0189H79.1787V36.9843C80.5978 36.2631 82.6031 35.6045 83.5594 35.6045C84.3924 35.6045 84.8243 35.9495 84.8243 36.8275V47.0189H87.0764V46.9875ZM101.422 46.9875V36.7648C101.422 34.7265 100.681 33.3781 98.5837 33.3781C97.0411 33.3781 94.7582 34.068 93.3082 34.8206L93.0923 33.6917H91.2412V47.0189H93.4933V36.9529C94.9124 36.2317 96.9177 35.6045 97.8741 35.6045C98.7071 35.6045 99.139 35.9495 99.139 36.8275V47.0189H101.422V46.9875ZM107.191 42.3465V41.249H114.996V38.4581C114.996 35.6986 113.947 33.4095 110.06 33.4095C106.173 33.4095 104.939 35.6359 104.939 38.3954V42.3779C104.939 45.3882 106.265 47.2697 110.122 47.2697C111.757 47.2697 113.515 46.9875 114.749 46.5171L114.472 44.667C113.022 45.0433 111.633 45.2942 110.338 45.2942C107.777 45.2942 107.191 44.4475 107.191 42.3465ZM107.191 38.2073C107.191 36.3258 107.931 35.3223 110.06 35.3223C112.189 35.3223 112.806 36.3885 112.806 38.2073V39.3048H107.191V38.2073ZM136.653 46.9875V36.7648C136.653 34.7265 135.913 33.3781 133.815 33.3781C132.18 33.3781 129.959 34.0366 128.385 34.8206C128.015 33.9112 127.244 33.3781 125.886 33.3781C124.344 33.3781 122.061 34.068 120.611 34.8206L120.395 33.6917H118.544V47.0189H120.796V36.9529C122.215 36.2317 124.22 35.6045 125.177 35.6045C126.01 35.6045 126.442 35.9495 126.442 36.8275V47.0189H128.694V36.9529C130.113 36.2317 131.995 35.6045 133.075 35.6045C133.908 35.6045 134.339 35.9495 134.339 36.8275V47.0189H136.653V46.9875ZM140.695 33.6917V43.9144C140.695 45.9527 141.435 47.3011 143.533 47.3011C145.075 47.3011 147.358 46.6112 148.808 45.8586L149.024 46.9875H150.875V33.6604H148.623V43.7263C147.204 44.4475 145.199 45.0747 144.242 45.0747C143.409 45.0747 142.978 44.7297 142.978 43.8517V33.6604L140.695 33.6917ZM142.515 31.6534H144.613V29.3643H142.515V31.6534ZM147.173 31.6534H149.271V29.3643H147.173V31.6534ZM165.344 46.9875V36.7648C165.344 34.7265 164.604 33.3781 162.506 33.3781C160.994 33.3781 158.896 34.0366 157.446 34.7892V27.9218L155.194 28.2354V47.0189H157.446V36.9843C158.866 36.2631 160.871 35.6045 161.827 35.6045C162.66 35.6045 163.092 35.9495 163.092 36.8275V47.0189H165.344V46.9875ZM171.792 46.9875V27.8905L169.54 28.2041V46.9875H171.792ZM177.654 42.3465V41.249H185.459V38.4581C185.459 35.6986 184.41 33.4095 180.523 33.4095C176.636 33.4095 175.402 35.6359 175.402 38.3954V42.3779C175.402 45.3882 176.728 47.2697 180.584 47.2697C182.219 47.2697 183.978 46.9875 185.212 46.5171L184.934 44.667C183.484 45.0433 182.096 45.2942 180.8 45.2942C178.24 45.2942 177.654 44.4475 177.654 42.3465ZM177.654 38.2073C177.654 36.3258 178.394 35.3223 180.523 35.3223C182.651 35.3223 183.268 36.3885 183.268 38.2073V39.3048H177.654V38.2073Z" fill="#6F7072"/>
        <path d="M36.5742 21.713C36.3582 19.2671 35.3093 17.1034 33.5817 15.6923C32.0392 14.4066 30.0647 13.7794 28.152 14.0303C25.8073 14.2812 23.8946 16.0999 22.6914 17.5737C21.334 19.2044 20.4085 20.9918 19.9149 22.2774C18.7117 21.2113 17.9405 19.957 17.5702 18.4204C17.2617 17.1034 16.9224 14.5007 16.6756 12.6192C16.4905 11.3649 16.3979 10.3614 16.3054 10.0165C16.0586 8.85622 15.2873 6.88066 14.7937 5.84584C15.8735 5.62634 16.7064 5.34411 17.5085 4.56016C18.3107 3.74486 19.6064 2.49054 19.6372 2.49054L20.4085 1.73794L19.3287 1.64387C19.1128 1.61251 13.6214 1.20486 12.6959 1.23622C12.048 1.26757 11.2459 1.61251 10.598 2.23967C10.0736 2.71004 9.39486 3.52535 8.90125 4.84239C8.40764 4.93646 3.93431 5.81448 3.93431 5.81448V6.78659L4.30452 6.88066C5.69279 7.19424 7.45127 7.94683 8.50019 8.73078L8.43849 8.76214C7.54382 9.35794 6.34065 10.1733 5.32258 11.114C4.02686 12.3056 3.40985 13.3718 3.5024 14.3125C3.5641 14.971 3.84176 15.4728 4.30452 15.8177C4.67472 16.0686 5.13748 16.194 5.66194 16.194C5.04493 17.2915 4.70557 18.1382 4.45877 18.9535C4.15026 20.0824 4.02686 21.2113 4.18111 22.6224C4.36622 24.7861 5.44598 26.9498 6.68001 28.8313H0.293945V43.8518C0.293945 45.2002 0.571601 46.4858 1.15776 47.6147C1.68222 48.6809 2.42263 49.5903 3.34815 50.3742C5.01408 51.754 7.23532 52.5693 9.3023 52.5693C11.3693 52.5693 13.5905 51.754 15.2565 50.3742C16.182 49.6216 16.9224 48.6809 17.4468 47.6147C17.9713 46.5799 18.249 45.451 18.3107 44.2594C18.4341 42.2525 19.1128 39.2735 20.1617 36.953C21.334 34.3189 22.9074 32.9392 24.9127 32.751C25.9924 32.657 27.0722 32.8137 27.9977 33.2528C28.769 33.5977 29.5094 34.1308 30.0956 34.7893C31.1753 35.9495 31.6998 37.2666 31.7615 37.5488V37.5175L32.1317 38.7404L32.6562 37.6742C33.4891 35.9182 34.6614 33.1587 35.5253 29.9288C36.4816 26.8557 36.7901 24.0649 36.5742 21.713ZM7.42042 29.7407L7.63637 30.0229C8.31509 30.9323 9.02465 31.7162 9.61081 32.3434L10.9374 33.7858C13.0661 36.0436 14.732 37.831 15.5033 39.1481C16.4905 40.8414 17.2 42.5034 17.4468 43.7577C17.4777 43.8831 17.5085 44.134 17.5085 44.2281C17.3851 46.9249 15.9969 48.6182 14.7937 49.6216C13.282 50.876 11.2767 51.6286 9.4257 51.6286C7.54382 51.6286 5.56939 50.9073 4.05771 49.6216C2.82369 48.5868 1.34286 46.7367 1.34286 43.8518V29.8034L7.42042 29.7407ZM9.02465 9.51473L9.2406 9.35794C9.39486 9.57745 9.48741 9.7656 9.48741 9.9851C9.54911 10.7377 8.8704 11.553 8.03743 12.6192C7.48212 13.3091 6.86511 14.1244 6.2481 15.0651C5.66194 15.2219 5.16833 15.1592 4.82897 14.9083C4.61302 14.7202 4.45877 14.4693 4.42792 14.1244C4.36622 13.4972 4.89068 12.6819 5.9396 11.7098C6.95766 10.8945 8.16083 10.1105 9.02465 9.51473ZM34.754 29.7093C34.0753 32.2807 33.1806 34.6012 32.3785 36.2631C32.07 35.636 31.6072 34.9147 30.9594 34.2249C29.8488 32.9705 27.8743 31.5594 24.9127 31.8103C23.6478 31.9357 22.5063 32.4688 21.5191 33.3468C20.717 34.0994 20.0074 35.197 19.3904 36.5453C18.6809 38.176 18.1873 40.0261 17.8171 41.7508C17.4468 40.7787 16.9532 39.7439 16.3054 38.6463C15.4724 37.2352 13.7756 35.4165 11.6161 33.1273L10.2895 31.6849C8.8704 30.1483 7.66722 28.5804 6.80341 27.0752C5.84704 25.4133 5.29173 23.8454 5.16833 22.497C5.04493 21.2113 5.13748 20.2078 5.41513 19.173C5.66194 18.2323 6.1247 17.2602 6.95766 15.8491C7.54382 14.8142 8.19168 13.9989 8.80869 13.2777C9.79591 12.0547 10.5363 11.0826 10.4438 9.95375C10.3512 9.01301 9.57996 8.13498 8.06828 7.31967C7.42042 6.97473 6.68001 6.66115 6.0013 6.41029C7.45127 6.12807 9.33315 5.75177 9.33315 5.75177L9.61081 5.68905L9.70336 5.43819C10.3821 3.21177 11.8938 2.20831 12.7267 2.17696C13.3129 2.1456 16.1203 2.3651 18.1564 2.49054C17.7245 2.89819 17.2 3.43128 16.799 3.83893C16.1511 4.49745 15.4107 4.6856 14.3309 4.93646L13.282 5.18732L13.6831 5.78313C13.899 6.09671 15.0097 8.73078 15.349 10.2046C15.4416 10.5182 15.565 11.553 15.6884 12.7133C15.9352 14.7202 16.2745 17.2602 16.6139 18.6399C17.0766 20.6155 18.0639 22.152 19.7606 23.4377L20.3159 23.8454L20.4085 23.5004C20.8713 21.9639 22.1361 19.7061 23.3702 18.2009C24.4499 16.8525 26.2084 15.2219 28.2137 14.971C29.8488 14.7515 31.5764 15.316 32.9338 16.4449C34.4455 17.6992 35.4019 19.612 35.587 21.8071C35.8338 24.0335 35.5253 26.6989 34.754 29.7093ZM12.7884 6.53572C12.7267 5.78313 12.048 5.18733 11.2767 5.2814C10.5363 5.34412 9.95016 6.03399 10.0427 6.81795C10.1044 7.57054 10.7831 8.16634 11.5544 8.07227C12.2948 7.97819 12.8501 7.28831 12.7884 6.53572ZM11.832 6.6298C11.8629 6.8493 11.6778 7.06881 11.4618 7.10017C11.2459 7.13152 11.0299 6.94338 10.9991 6.72387C10.9682 6.50436 11.1533 6.28486 11.3693 6.2535C11.6161 6.19078 11.8012 6.34757 11.832 6.6298ZM8.22253 45.6078V45.8273C8.22253 46.1409 8.19168 46.2977 7.60552 46.2977C7.32787 46.2977 6.95766 46.2663 6.64916 46.1723L6.55661 46.8308C6.83426 46.9249 7.20447 46.9876 7.63637 46.9876C8.74699 46.9876 8.9938 46.5799 8.9938 45.89V45.5137C8.9938 44.9493 8.77784 44.573 8.03743 44.5416C7.82148 44.5416 7.69808 44.5103 7.48212 44.5103V43.4755H8.9321V42.817H6.68001V45.1374C6.98851 45.1374 7.23532 45.1374 7.66723 45.1688C8.16083 45.2002 8.22253 45.2942 8.22253 45.6078ZM3.6258 46.8935H6.03215V46.235H5.19918V42.817H4.52047L3.5024 43.1305L3.6875 43.7891L4.45877 43.5695V46.235H3.65665V46.8935H3.6258ZM9.61081 45.6392V45.89C9.61081 46.6113 9.95016 46.9562 10.9374 46.9562C11.9246 46.9562 12.264 46.674 12.264 45.89V45.6392C12.264 45.2942 12.1406 45.0434 11.6778 44.8239C12.0789 44.6044 12.1714 44.3535 12.1714 44.0399V43.7577C12.1714 43.1305 11.8629 42.7542 10.9682 42.7542C10.0736 42.7542 9.76506 43.1305 9.76506 43.7577V44.0399C9.76506 44.3535 9.88846 44.6044 10.2587 44.8239C9.73421 45.0434 9.61081 45.2942 9.61081 45.6392ZM11.431 44.0399C11.431 44.2594 11.3693 44.3535 10.9374 44.5416C10.5055 44.3535 10.4438 44.2908 10.4438 44.0399V43.7891C10.4438 43.5382 10.5363 43.4128 10.9374 43.4128C11.3384 43.4128 11.431 43.5695 11.431 43.7891V44.0399ZM10.3512 45.7019C10.3512 45.451 10.4129 45.3256 10.9374 45.1061C11.4618 45.3256 11.5235 45.4197 11.5235 45.7019V45.89C11.5235 46.2036 11.3693 46.2977 10.9374 46.2977C10.5055 46.2977 10.3512 46.1723 10.3512 45.89V45.7019ZM14.115 42.817L12.665 45.2629V45.9528H14.4235V46.8621H15.1639V45.9528H15.6575V45.2942H15.1639V42.7856H14.115V42.817ZM13.4363 45.3256L14.4235 43.5382V45.3256H13.4363Z" fill="#E1001A"/>
    </symbol>
    <symbol id="canson" viewBox="0 0 176 51">
<path fill-rule="evenodd" clip-rule="evenodd" d="M34.1062 7.15549C37.0027 8.94709 40.5509 13.7706 41.7819 17.3538C43.2302 21.3505 41.8543 25.2782 38.4509 28.1724C32.8752 32.8581 29.3269 36.0967 26.7201 39.0598C24.6925 41.4026 22.158 44.3657 22.3753 50.4296C17.0167 44.2968 16.003 34.8564 21.796 28.7236C28.0235 22.1085 29.1821 20.7303 31.4993 17.8362C33.6717 15.0799 34.4682 11.1521 34.1062 7.15549Z" fill="#558EC0"/>
<path fill-rule="evenodd" clip-rule="evenodd" d="M9.88354 37.259C-5.16564 24.5345 -1.05464 6.86167 20.9686 1.84258C23.3177 1.27704 24.3454 1.06497 25.52 0.570129C26.768 3.04433 26.9148 4.953 23.8316 7.00306C16.1234 12.0222 4.45115 18.8792 9.88354 37.259Z" fill="#558EC0"/>
<path fill-rule="evenodd" clip-rule="evenodd" d="M64.8642 40.3967C63.6321 40.8831 63.016 41.0221 61.1679 41.0221C53.8524 41.0221 48 35.5326 48 28.7924C48 22.0522 53.9294 16.5628 61.1679 16.5628C62.4 16.5628 63.6321 16.7018 64.9412 17.1187V23.164C63.7861 22.5386 62.631 22.2607 61.1679 22.2607C57.1636 22.2607 53.9294 25.1791 53.9294 28.7924C53.9294 32.4057 57.1636 35.3242 61.1679 35.3242C62.862 35.3242 63.7091 35.0462 64.7872 34.4903L64.8642 40.3967Z" fill="#053D5B"/>
<path fill-rule="evenodd" clip-rule="evenodd" d="M147.765 28.7924C147.765 35.5326 142.043 41.0221 135.059 41.0221C128 41.0221 122.353 35.5326 122.353 28.7924C122.353 22.0522 128.074 16.5628 135.059 16.5628C142.043 16.5628 147.765 22.0522 147.765 28.7924ZM134.985 22.2607C131.121 22.2607 128 25.1791 128 28.7924C128 32.4057 131.121 35.3242 134.985 35.3242C138.848 35.3242 141.969 32.4057 141.969 28.7924C141.969 25.1791 138.848 22.2607 134.985 22.2607Z" fill="#053D5B"/>
<path fill-rule="evenodd" clip-rule="evenodd" d="M94.0148 40.9516H87.5295V26.0082C87.5295 21.0035 91.9303 16.5628 97.4119 16.5628C102.894 16.5628 107.294 21.0035 107.294 26.0082V41.0221H100.809V26.0082C100.809 23.823 99.2648 22.4838 97.3347 22.4838C95.4045 22.4838 93.8604 24.0345 93.8604 26.0082L94.0148 40.9516Z" fill="#053D5B"/>
<path fill-rule="evenodd" clip-rule="evenodd" d="M155.824 40.9516H149.647V26.0082C149.647 21.0035 153.839 16.5628 159.059 16.5628C164.28 16.5628 168.471 21.0035 168.471 26.0082V41.0221H162.294V26.0082C162.294 23.8935 160.824 22.4838 158.986 22.4838C157.147 22.4838 155.677 24.0345 155.677 26.0082L155.824 40.9516Z" fill="#053D5B"/>
<path fill-rule="evenodd" clip-rule="evenodd" d="M73 34.6077V40.9516H66.8235V26.0082C66.8235 21.0035 71.0147 16.5628 76.2353 16.5628C81.4558 16.5628 85.647 21.0035 85.647 26.0082V41.0221H79.4705V34.5372H73V34.6077ZM79.5441 29.0391V26.0787C79.5441 23.964 78.0735 22.5543 76.2353 22.5543C74.5441 22.5543 72.9264 24.105 72.9264 26.0787V29.1096H79.5441V29.0391Z" fill="#053D5B"/>
<path fill-rule="evenodd" clip-rule="evenodd" d="M117.831 25.5702L119.77 28.9864C123.128 34.6802 119.696 42.6515 109.177 40.7298V35.1072C113.504 36.673 115.891 34.4667 114.026 30.9793C114.026 30.9793 112.683 28.6306 111.638 26.8513C109.102 22.581 112.31 15.3214 121.412 16.7448V22.5098C119.099 20.8728 116.04 22.5098 117.831 25.5702Z" fill="#053D5B"/>
<path d="M176 19.8555C176 20.5472 175.668 21.1006 175.17 21.5156C174.671 21.9307 173.924 22.2074 173.177 22.2074C172.346 22.2074 171.682 21.9307 171.183 21.5156C170.685 21.1006 170.353 20.4781 170.353 19.8555C170.353 19.1638 170.685 18.6104 171.183 18.1954C171.682 17.7804 172.429 17.5037 173.177 17.5037C173.924 17.5037 174.671 17.7804 175.17 18.1954C175.668 18.6104 176 19.1638 176 19.8555ZM174.921 21.3773C175.419 20.9623 175.668 20.4781 175.668 19.8555C175.668 19.3021 175.419 18.7488 174.921 18.3337C174.422 17.9187 173.841 17.7112 173.094 17.7112C172.346 17.7112 171.765 17.9187 171.267 18.3337C170.768 18.7488 170.519 19.233 170.519 19.8555C170.519 20.4781 170.768 20.9623 171.267 21.3773C171.765 21.7923 172.346 21.9999 173.094 21.9999C173.841 21.9999 174.422 21.7232 174.921 21.3773Z" fill="#053D5B"/>
<path fill-rule="evenodd" clip-rule="evenodd" d="M172.678 18.8153H173.287C173.509 18.8153 173.675 18.8895 173.675 19.2609C173.675 19.5579 173.564 19.7065 173.287 19.7065H172.678V18.8153ZM172.291 21.2661H172.678V20.0778H173.232C173.564 20.0778 173.675 20.3006 173.675 20.8205C173.675 20.9691 173.675 21.1176 173.73 21.2661H174.118C174.062 21.1176 174.007 20.8205 174.007 20.5234C174.007 20.0778 173.841 19.9293 173.675 19.9293C173.73 19.9293 174.007 19.7808 174.007 19.1866C174.007 18.6667 173.786 18.4439 173.287 18.4439H172.235V21.2661H172.291Z" fill="#053D5B"/>
    </symbol>
    <symbol id="royal" viewBox="0 0 212 21">
        <path d="M12.872 19.5722L10.5112 20.1942L5.36687 12.4383L2.47756 12.3651L2.6185 19.8649L0.292969 20.0478V1.09712L4.8031 0.950782C6.84675 0.877613 8.43234 1.35321 9.52464 2.30441C10.6169 3.29219 11.1807 4.60922 11.1807 6.18235C11.1807 7.2433 10.8284 8.26766 10.1589 9.29202C9.48941 10.353 8.53805 11.1578 7.26958 11.67V11.7432L12.872 19.5722ZM2.58327 2.45074L2.44233 11.0847L5.96587 10.9383C7.23434 10.5725 8.74946 9.03592 8.74946 6.76769C8.74946 4.24337 7.16387 2.59708 4.52122 2.52392L2.58327 2.45074ZM23.8302 20.1942C18.7563 20.1942 14.7747 16.2796 14.7747 10.4261C14.7747 5.04823 19.2848 0.658112 24.3587 0.658112C29.4679 0.658112 33.4495 4.60922 33.4495 10.4627C33.4142 15.8772 28.6927 20.1942 23.8302 20.1942ZM24.1826 18.621C28.1642 18.621 30.9478 15.5479 30.9478 10.6456C30.9478 5.74333 27.7061 2.23123 24.0064 2.23123C20.06 2.23123 17.2412 5.26773 17.2412 10.2432C17.2412 15.0358 20.5533 18.621 24.1826 18.621ZM43.4211 19.8649L41.0956 20.0478V11.0481L34.2247 1.28004L36.7264 0.950782L42.505 9.69444L48.4598 0.950782L50.4682 1.28004L43.3859 11.1578L43.4211 19.8649ZM66.2536 19.8283L63.8224 20.0844L62.0254 15.0723L53.2518 15.2553L51.4548 20.0478L49.4463 19.8283L57.3038 0.950782L58.3609 0.694693L66.2536 19.8283ZM57.5505 4.20679L53.9212 13.5724L61.4616 13.7187L57.5505 4.20679ZM74.3225 19.8649L69.4953 20.0112V1.1337L71.8208 0.950782L71.7151 8.96275L71.7856 18.4015L79.5374 18.1088L79.3612 19.9015L74.3225 19.8649ZM127.916 19.8649L125.59 20.0478V2.52392L118.543 2.78L118.719 0.950782H126.541L134.751 0.76786L134.575 2.70684L127.951 2.45074L127.81 9.40177L127.916 19.8649ZM150.361 19.8283L147.929 20.0844L146.132 15.0723L137.359 15.2553L135.562 20.0478L133.553 19.8283L141.411 0.950782L142.468 0.694693L150.361 19.8283ZM141.657 4.20679L138.028 13.5724L145.568 13.7187L141.657 4.20679ZM158.429 19.8649L153.602 20.0112V1.1337L155.928 0.950782L155.822 8.92618L155.892 18.3649L163.644 18.0723L163.468 19.8649H158.429ZM170.022 19.8649L166.956 20.0112V1.09712L171.326 0.950782H176.752L176.576 2.78L169.282 2.48733L169.106 9.65787L175.448 9.47494L175.061 11.2676L169.071 11.0847L169.247 18.3649L177.351 18.1088L177.175 19.9015H170.022V19.8649ZM183.094 19.8649L181.015 20.0478L181.191 1.1337L182.883 0.950782L194.123 15.5845L193.911 1.1337L195.99 0.950782L195.744 19.8649L194.969 20.0112L182.848 4.71898L183.094 19.8649ZM205.152 20.0478C204.095 20.0478 203.037 19.8283 202.016 19.3893C200.994 18.9503 200.219 18.4015 199.655 17.8528L200.782 16.5723C202.192 17.6698 203.707 18.5113 205.751 18.5113C208.006 18.5113 209.556 17.4503 209.556 15.365C209.556 14.2675 209.168 13.4261 208.464 12.9139C207.759 12.4017 206.772 11.8895 205.574 11.3773C203.073 10.353 200.395 9.29202 200.395 5.81651C200.395 3.0361 202.826 0.804447 206.138 0.804447C207.865 0.804447 209.662 1.31663 210.719 2.12149L210.296 3.76778C209.239 3.2556 207.195 2.48733 205.645 2.48733C203.918 2.48733 202.474 3.32877 202.474 5.15798C202.474 6.32868 202.861 7.17012 203.566 7.6823C204.271 8.23107 205.257 8.74325 206.42 9.25544C208.887 10.353 211.635 11.231 211.635 14.6333C211.67 18.2186 208.534 20.0478 205.152 20.0478Z" fill="#333333"/>
        <path d="M89.7919 0.693634V19.9736H108.361V0.693634H89.7919ZM99.0588 19.1687C94.3372 19.1687 90.5318 15.2176 90.5318 10.3153C90.5318 5.41302 94.3372 1.46191 99.0588 1.46191C103.78 1.46191 107.586 5.41302 107.586 10.3153C107.586 15.2176 103.78 19.1687 99.0588 19.1687ZM91.5889 11.8884C91.7651 12.7665 92.6107 14.8884 94.0554 14.3762C95.1124 13.9738 95.1829 12.9494 95.3943 11.7787C95.5705 10.6812 95.8524 8.59586 96.2047 8.15685C96.2399 8.12026 96.2047 8.08367 96.1695 8.08367C95.3238 8.12026 94.7601 10.0958 94.4429 11.0104C93.8439 12.8031 92.0117 12.9494 91.6946 11.8519C91.6946 11.8519 91.5889 11.8519 91.5889 11.8884ZM106.388 8.77877C106.176 8.30318 106.035 8.12025 105.824 7.68124C106 7.16906 106.212 6.47397 106.176 6.18129C106.035 4.93743 104.415 6.25445 104.767 7.86416C104.873 8.30318 104.978 8.63244 105.049 8.92512C104.555 9.94948 104.344 9.76656 104.379 9.40071C104.415 9.14462 104.45 8.63244 104.45 8.63244C104.591 7.64466 104.097 7.5715 103.78 7.791C103.604 7.90076 103.357 8.2666 103.252 8.4861L103.357 8.01051L102.477 8.37635L102.195 9.8763C101.842 10.7177 101.455 10.8641 101.208 10.8275C101.138 10.7909 101.067 10.7543 100.997 10.7178C101.807 9.98606 102.089 9.36413 102.019 8.92512C101.948 8.44952 101.596 8.44952 101.349 8.52269C100.715 8.7422 100.186 9.40071 100.045 10.3153C100.01 10.608 100.01 10.9007 100.081 11.1202C99.5168 12.0348 99.4816 11.5226 99.5521 11.1568C99.7282 10.3153 100.292 6.83981 100.292 6.83981L99.4111 7.20565C99.4111 7.20565 98.8826 10.2422 98.6712 11.4129C98.2484 12.4738 98.1427 12.0714 98.2131 11.7055C98.3541 10.8641 98.5655 9.76656 98.5655 9.76656L97.7198 10.0958C97.7198 10.0958 97.6494 10.3519 97.5789 10.7909C97.4732 10.4617 97.2618 10.2422 96.9799 10.2056C96.4514 10.1324 95.8876 10.8641 95.7114 11.7421C95.5352 12.6567 95.8171 13.4616 96.3457 13.4982C96.7332 13.5347 97.1208 13.2055 97.3675 12.6933C97.5084 13.0226 97.8608 12.986 98.0722 12.8396C98.2836 12.6933 98.495 12.3275 98.636 12.0348C98.7064 12.4738 99.0588 12.4738 99.3054 12.3275C99.693 12.108 100.045 11.5958 100.222 11.3763C100.362 11.6324 100.609 11.7787 100.891 11.7421C101.279 11.7055 101.737 11.1933 102.089 10.608L101.948 11.3031L102.829 10.9373L103.146 9.25438C103.569 8.19343 103.71 8.55927 103.675 8.88853C103.675 8.88853 103.639 9.18121 103.569 9.65681C103.463 10.6446 103.886 10.6812 104.203 10.4982C104.661 10.2056 104.943 9.6568 105.19 9.14462C105.366 9.58363 105.577 9.94948 105.753 10.4982C107.022 14.1933 102.23 13.8274 100.327 13.9006C98.5655 13.9738 98.3893 15.5469 98.2131 16.7542C104.767 16.8273 107.727 11.8153 106.388 8.77877ZM97.4379 11.5958C97.4027 12.0348 97.1208 12.5104 96.8742 12.5104C96.6275 12.5104 96.4514 12.1445 96.5218 11.6324C96.5923 11.1933 96.8037 10.7909 97.0504 10.7909C97.297 10.7909 97.4732 11.1568 97.4379 11.5958ZM100.891 10.4251C100.856 10.3153 100.856 10.2056 100.856 10.0592C100.891 9.62021 101.102 9.14462 101.384 9.07146C101.49 9.03487 101.596 9.07146 101.596 9.25438C101.596 9.65681 101.208 10.1324 100.891 10.4251ZM105.683 7.35199C105.648 7.3154 105.648 7.27882 105.648 7.24224C105.119 5.9252 105.824 5.74228 105.894 6.29104C105.894 6.58372 105.824 6.98614 105.683 7.35199ZM99.9749 3.5838C99.8692 4.42524 99.7987 6.18129 98.2131 6.43738C95.6057 6.87639 92.1174 8.04709 91.5536 10.6812C91.5536 10.7177 91.4479 10.7178 91.4479 10.7178C91.3775 6.58372 94.9362 3.5838 99.9749 3.5838Z" fill="#FF0000"/>
    </symbol>
     <symbol id="fabriano" viewBox="0 0 198 26">
        <path fill-rule="evenodd" clip-rule="evenodd" d="M119.322 25.1879H117.198V0.871283H119.322V25.1879ZM169.809 0.871283V21.2541L150.832 0.871283V0.799988H148.637V25.1879H150.832V4.59013L169.809 25.1879V25.1156V25.1879H172.003V0.871283H169.809ZM143.821 0.871283V0.942578L121.304 25.1156H124.561L143.821 3.87509V17.9631H134.333V20.1805H143.821V25.1156H145.944V0.871283H143.821Z" fill="black"/>
        <path fill-rule="evenodd" clip-rule="evenodd" d="M108.135 14.1006H108.277C111.817 14.1006 114.719 10.8829 114.719 7.3077C114.719 3.87508 112.028 1.01387 108.699 0.871283V0.799988H108.346H90.9284V25.1879H93.1237V3.01746H108.558C109.601 3.15473 110.557 3.66631 111.248 4.45631C111.939 5.2463 112.317 6.26048 112.312 7.30875C112.312 9.59751 110.541 11.8139 108.205 11.9576H105.232V14.3889H105.301L111.603 25.1166H115.074L108.135 14.1006ZM76.9079 0.799988L65.0837 0.871283V25.1869H82.8557C86.2538 24.9719 88.8739 22.1107 88.8739 18.6771C88.8739 16.3181 87.6701 14.3155 85.8291 13.1706C87.669 12.0278 88.8739 9.66775 88.8739 7.3077C88.8739 3.87508 86.2538 1.08517 82.9261 0.871283V0.799988H76.9079ZM76.9079 22.9694H67.278V3.01746H82.7842C83.8263 3.15475 84.7824 3.66637 85.4732 4.45639C86.164 5.24641 86.5421 6.26058 86.5367 7.30875C86.5367 9.6688 84.6252 11.8852 82.2879 11.9576V14.3868C84.6241 14.3868 86.5367 16.3181 86.5367 18.6771C86.5367 20.8945 84.8376 22.6821 82.7137 22.9694H76.9079Z" fill="black"/>
        <path fill-rule="evenodd" clip-rule="evenodd" d="M0.647095 0.799988V25.1155H2.84244L22.1021 4.44753V17.963H12.7551V20.1805H22.1021V25.1155H24.227V0.799988H0.647095ZM2.84244 21.8255V13.5302H10.6313L2.84244 21.8255ZM2.84244 11.3127V3.01641H20.5439L12.7551 11.3127H2.84244Z" fill="#00ACEC"/>
        <path fill-rule="evenodd" clip-rule="evenodd" d="M185.315 0.799988C178.66 0.799988 173.207 6.23514 173.207 12.9588C173.207 19.6794 178.66 25.1879 185.315 25.1879C191.971 25.1879 197.353 19.6794 197.353 12.9588C197.353 6.23514 191.971 0.799988 185.315 0.799988ZM185.315 22.6119C180.075 22.6119 175.898 18.3216 175.898 13.1014C175.898 7.80886 180.075 3.58991 185.315 3.58991C190.484 3.58991 194.733 7.80886 194.733 13.1014C194.733 18.3216 190.484 22.6119 185.315 22.6119Z" fill="black"/>
        <path fill-rule="evenodd" clip-rule="evenodd" d="M55.9487 3.15997V0.942511H32.2279V25.1878H34.3528V14.0292H48.3271L38.0338 25.1155H41.2911L60.4803 3.87502V17.963H51.0628V20.1805H60.4803L60.6212 25.2591H62.8165L62.6757 0.871216H60.4803V0.942511L50.3857 11.8128H34.3528V3.15997H55.9487Z" fill="black"/>
    </symbol>
</svg>