<svg width="24" height="24" viewBox="0 0 24 24" fill="none" xmlns="http://www.w3.org/2000/svg">
<path d="M5.82564 5.82664C5.4818 6.17548 5.25591 6.66525 5.12997 7.59581C5.00103 8.56036 5.00003 9.83776 5.00003 11.6759V12.3156C5.00003 14.1507 5.00103 15.4271 5.12997 16.3907C5.25491 17.3223 5.4818 17.815 5.82664 18.1669C6.17648 18.5097 6.66625 18.7366 7.59581 18.8615C8.56036 18.9905 9.83776 18.9925 11.6759 18.9925H12.3156C14.1507 18.9925 15.4271 18.9905 16.3917 18.8615C17.3223 18.7366 17.815 18.5097 18.1669 18.1649C18.5097 17.816 18.7366 17.3263 18.8615 16.3957C18.9915 15.4311 18.9925 14.1537 18.9925 12.3156V11.6759C18.9925 9.84076 18.9905 8.56436 18.8625 7.60081C18.7366 6.66924 18.5097 6.17648 18.1649 5.82464C17.816 5.4818 17.3263 5.25491 16.3957 5.12997C15.4311 5.00103 14.1537 4.99903 12.3156 4.99903H11.6759C9.84076 4.99903 8.56436 5.00103 7.60081 5.12997C6.66924 5.25491 6.17747 5.4818 5.82564 5.82664ZM11.6759 2.99996H12.3156C13.7599 2.99996 15.2262 2.95698 16.6606 3.14889C17.816 3.30382 18.7946 3.63467 19.5762 4.4083L19.5842 4.4173C20.3568 5.20093 20.6887 6.17947 20.8436 7.33593C21.0345 8.76826 20.9915 10.2336 20.9915 11.6759V12.3156C20.9915 13.7589 21.0355 15.2252 20.8426 16.6606C20.6887 17.816 20.3568 18.7946 19.5832 19.5762L19.5742 19.5842C18.7916 20.3568 17.813 20.6877 16.6556 20.8436C15.2232 21.0345 13.7579 20.9915 12.3156 20.9915H11.6759C10.2326 20.9915 8.76626 21.0345 7.33193 20.8426C6.17548 20.6877 5.19693 20.3568 4.4163 19.5832L4.4073 19.5742C3.63567 18.7906 3.30382 17.812 3.14889 16.6556C2.95698 15.2242 2.99996 13.7589 2.99996 12.3156V11.6759C2.99996 10.2326 2.95698 8.76626 3.14989 7.33093C3.30382 6.17548 3.63566 5.19693 4.4093 4.4153L4.4173 4.4073C5.20093 3.63467 6.17947 3.30382 7.33593 3.14789C8.76926 2.95798 10.2346 2.99996 11.6759 2.99996ZM6.03454 8.4754C6.1305 13.1532 8.4694 15.9599 12.5715 15.9599H12.8114V13.2851C14.3167 13.4351 15.4561 14.5386 15.9119 15.9599H18.0409C17.8225 15.1523 17.4354 14.4001 16.9051 13.753C16.3748 13.1059 15.7133 12.5785 14.9644 12.2057C15.6356 11.797 16.2153 11.2542 16.6673 10.6114C17.1192 9.9685 17.4337 9.23932 17.5911 8.4694H15.66C15.2402 9.9567 13.9928 11.3061 12.8114 11.432V8.4754H10.8743V13.657C9.67484 13.3571 8.16354 11.9058 8.09758 8.4754H6.03454Z" fill="white"/>
</svg>
